<svg xmlns="http://www.w3.org/2000/svg" width="400" height="400" viewBox="0 0 400 400"><rect width="100%" height="100%" fill="#FFA500"/><path fill="#FFFFFF" d="M111.21 210.635q.59 0 1.05.46l2.86 3.11q-2.37 2.94-5.84 4.51-3.47 1.56-8.33 1.56-4.35 0-7.82-1.48-3.47-1.49-5.92-4.13-2.46-2.65-3.77-6.32t-1.31-8.02q0-4.4 1.4-8.06 1.41-3.66 3.96-6.3 2.55-2.65 6.09-4.12 3.53-1.47 7.83-1.47 4.26 0 7.57 1.4t5.63 3.67l-2.43 3.38q-.22.32-.55.56-.34.25-.93.25-.41 0-.84-.23t-.95-.57q-.51-.34-1.18-.74-.68-.41-1.57-.74-.89-.34-2.07-.57-1.17-.23-2.71-.23-2.62 0-4.79.93-2.18.93-3.74 2.7-1.57 1.77-2.43 4.32-.87 2.55-.87 5.82 0 3.29.94 5.86.93 2.56 2.52 4.32 1.59 1.75 3.75 2.68 2.16.94 4.65.94 1.48 0 2.68-.17 1.21-.16 2.22-.51t1.91-.9q.91-.56 1.8-1.37.27-.24.57-.39.29-.15.62-.15m14.52-30.91v15.39q1.62-1.51 3.57-2.46 1.94-.94 4.56-.94 2.27 0 4.02.77 1.76.77 2.93 2.16 1.18 1.39 1.79 3.32.6 1.93.6 4.25v17.63h-6.67v-17.63q0-2.54-1.16-3.93t-3.53-1.39q-1.73 0-3.24.78-1.52.79-2.87 2.14v20.03h-6.66v-40.12zm24.01 12.42h6.69v27.7h-6.69zm7.61-8.07q0 .86-.35 1.61-.35.76-.93 1.33-.58.56-1.36.9-.79.34-1.68.34-.86 0-1.63-.34t-1.34-.9q-.57-.57-.9-1.33-.34-.75-.34-1.61 0-.9.34-1.68.33-.78.9-1.35t1.34-.9q.77-.34 1.63-.34.89 0 1.68.34.78.33 1.36.9t.93 1.35.35 1.68m11.67 9.28.45 2.19q.84-.84 1.77-1.55.93-.72 1.97-1.22t2.23-.78 2.59-.28q2.27 0 4.03.77 1.75.77 2.93 2.16 1.17 1.39 1.78 3.32t.61 4.25v17.63h-6.67v-17.63q0-2.54-1.16-3.93-1.17-1.39-3.54-1.39-1.73 0-3.24.78-1.51.79-2.86 2.14v20.03h-6.67v-27.7h4.07q1.3 0 1.71 1.21m24.46 12.96v-5.56h13.98v5.56zm48.22 4.32q.59 0 1.05.46l2.86 3.11q-2.37 2.94-5.84 4.51-3.47 1.56-8.33 1.56-4.35 0-7.82-1.48-3.47-1.49-5.92-4.13-2.46-2.65-3.77-6.32t-1.31-8.02q0-4.4 1.4-8.06 1.41-3.66 3.96-6.3 2.55-2.65 6.09-4.12t7.83-1.47q4.26 0 7.57 1.4t5.63 3.67l-2.43 3.38q-.21.32-.55.56-.34.25-.93.25-.41 0-.84-.23t-.95-.57q-.51-.34-1.18-.74-.68-.41-1.57-.74-.89-.34-2.07-.57-1.17-.23-2.71-.23-2.62 0-4.79.93t-3.74 2.7-2.43 4.32-.86 5.82q0 3.29.93 5.86.93 2.56 2.52 4.32 1.59 1.75 3.75 2.68 2.16.94 4.65.94 1.48 0 2.68-.17 1.21-.16 2.22-.51t1.92-.9q.9-.56 1.79-1.37.27-.24.57-.39t.62-.15m14.53-30.91v15.39q1.62-1.51 3.56-2.46 1.94-.94 4.56-.94 2.27 0 4.03.77 1.75.77 2.92 2.16 1.18 1.39 1.79 3.32.6 1.93.6 4.25v17.63h-6.66v-17.63q0-2.54-1.17-3.93-1.16-1.39-3.53-1.39-1.73 0-3.24.78-1.51.79-2.86 2.14v20.03h-6.67v-40.12zm24 12.42h6.69v27.7h-6.69zm7.61-8.07q0 .86-.35 1.61-.35.76-.93 1.33-.58.56-1.36.9-.79.34-1.68.34-.86 0-1.63-.34t-1.34-.9q-.56-.57-.9-1.33-.34-.75-.34-1.61 0-.9.34-1.68t.9-1.35q.57-.57 1.34-.9.77-.34 1.63-.34.89 0 1.68.34.78.33 1.36.9t.93 1.35.35 1.68m11.67 9.28.46 2.19q.83-.84 1.76-1.55.94-.72 1.97-1.22 1.04-.5 2.23-.78t2.59-.28q2.27 0 4.03.77 1.75.77 2.93 2.16 1.17 1.39 1.78 3.32t.61 4.25v17.63h-6.67v-17.63q0-2.54-1.16-3.93t-3.54-1.39q-1.73 0-3.24.78-1.51.79-2.86 2.14v20.03h-6.67v-27.7h4.08q1.29 0 1.7 1.21"/></svg>