<svg xmlns="http://www.w3.org/2000/svg" width="400" height="400" viewBox="0 0 400 400"><rect width="100%" height="100%" fill="#8B4513"/><path fill="#FFFFFF" d="M109.265 176.985v5.75h-11.34v31.85h-6.99v-31.85h-11.34v-5.75zm4.13 10.92h6.45v26.68h-6.45zm7.33-7.77q0 .83-.33 1.56-.34.73-.9 1.27-.56.55-1.31.87-.76.33-1.62.33-.83 0-1.57-.33-.74-.32-1.29-.87-.54-.54-.87-1.27-.32-.73-.32-1.56 0-.86.32-1.61.33-.76.87-1.3.55-.55 1.29-.87.74-.33 1.57-.33.86 0 1.62.33.75.32 1.31.87.56.54.9 1.3.33.75.33 1.61m15.42 20.46q1.2 0 2.08-.32.89-.33 1.47-.9.59-.57.88-1.38.3-.8.3-1.77 0-1.97-1.18-3.13t-3.55-1.16q-2.36 0-3.55 1.16-1.18 1.16-1.18 3.13 0 .94.3 1.75.3.8.88 1.39.59.58 1.48.91.9.32 2.07.32m7.26 15.19q0-.78-.47-1.28-.47-.49-1.28-.77-.8-.27-1.88-.4t-2.29-.19q-1.21-.07-2.5-.12-1.28-.05-2.5-.21-1.07.6-1.73 1.41-.67.8-.67 1.87 0 .7.35 1.31.36.61 1.12 1.05.77.45 1.99.69 1.22.25 2.99.25 1.8 0 3.1-.27 1.3-.28 2.14-.76.85-.48 1.24-1.14t.39-1.44m-1.28-26.97h7.67v2.4q0 1.14-1.38 1.4l-2.39.44q.55 1.38.55 3.02 0 1.97-.8 3.57-.79 1.6-2.19 2.72-1.41 1.12-3.32 1.73t-4.12.61q-.78 0-1.51-.08-.72-.08-1.43-.21-1.24.76-1.24 1.69 0 .81.74 1.19.74.37 1.96.53t2.78.19q1.56.04 3.2.17t3.2.46q1.56.32 2.78 1.03 1.22.7 1.96 1.91t.74 3.1q0 1.77-.87 3.44-.87 1.66-2.52 2.96t-4.06 2.09q-2.4.8-5.47.8-3.01 0-5.25-.59-2.24-.58-3.72-1.56-1.48-.97-2.21-2.25-.73-1.27-.73-2.65 0-1.87 1.13-3.13 1.14-1.26 3.11-2.02-1.06-.54-1.69-1.45-.62-.91-.62-2.4 0-.59.22-1.23t.65-1.26q.43-.63 1.08-1.19.65-.55 1.53-1-2.03-1.09-3.18-2.91-1.16-1.82-1.16-4.26 0-1.98.79-3.58.8-1.6 2.21-2.73 1.42-1.13 3.36-1.73 1.93-.59 4.22-.59 1.72 0 3.23.35 1.5.35 2.75 1.02m16.8 9.36h12.11q0-1.24-.35-2.35-.35-1.1-1.05-1.94-.7-.83-1.78-1.31t-2.51-.48q-2.78 0-4.38 1.59-1.6 1.58-2.04 4.49m16.38 3.88h-16.51q.15 2.05.73 3.55.57 1.49 1.5 2.47.94.97 2.23 1.45 1.28.48 2.84.48t2.69-.36q1.14-.36 1.98-.81.85-.44 1.48-.8.64-.37 1.24-.37.8 0 1.19.6l1.85 2.34q-1.07 1.25-2.39 2.09-1.33.85-2.77 1.36-1.44.5-2.94.71-1.49.21-2.9.21-2.78 0-5.17-.92-2.39-.93-4.16-2.73-1.77-1.81-2.78-4.48-1.02-2.66-1.02-6.17 0-2.73.89-5.14.88-2.4 2.53-4.18t4.03-2.82 5.37-1.04q2.52 0 4.65.8 2.14.81 3.67 2.36 1.53 1.54 2.4 3.79.88 2.25.88 5.14 0 1.45-.32 1.96-.31.51-1.19.51m11.98-12.53.39 3.01q1.25-2.39 2.97-3.76 1.71-1.36 4.05-1.36 1.85 0 2.97.81l-.42 4.81q-.13.46-.38.66-.24.19-.66.19-.39 0-1.16-.13-.76-.13-1.49-.13-1.07 0-1.9.32-.83.31-1.49.89-.67.59-1.17 1.42-.51.83-.95 1.9v16.43h-6.42v-26.68h3.77q.98 0 1.37.35.39.36.52 1.27m52.91-12.54h6.17v37.6h-3.59q-.83 0-1.39-.27-.56-.28-1.08-.93l-19.63-25.06q.15 1.72.15 3.17v23.09h-6.16v-37.6h3.67q.44 0 .76.04.33.04.58.16.24.12.48.34.23.22.52.58l19.71 25.17q-.08-.91-.13-1.79-.06-.89-.06-1.64zm30.09 10.92h6.42v26.68h-3.93q-1.27 0-1.61-1.17l-.44-2.13q-1.64 1.66-3.62 2.69-1.97 1.03-4.65 1.03-2.18 0-3.86-.75-1.68-.74-2.82-2.09-1.15-1.35-1.73-3.21-.59-1.86-.59-4.09v-16.96h6.43v16.96q0 2.44 1.13 3.78t3.39 1.34q1.66 0 3.12-.74t2.76-2.04zm21.65 27.1q-3.48 0-5.34-1.97-1.86-1.96-1.86-5.42v-14.9h-2.73q-.52 0-.88-.33-.37-.34-.37-1.02v-2.55l4.29-.7 1.36-7.28q.13-.52.49-.8.36-.29.94-.29h3.32v8.4h7.13v4.57h-7.13v14.46q0 1.25.62 1.95.61.7 1.67.7.6 0 1-.14.41-.14.71-.3.29-.16.53-.3.23-.14.47-.14.28 0 .46.14.19.14.39.43l1.93 3.12q-1.41 1.17-3.23 1.77t-3.77.6m28.19-24.21-1.46 2.31q-.26.42-.54.59-.29.17-.73.17-.47 0-1-.26-.54-.26-1.24-.59-.7-.32-1.6-.58-.89-.26-2.12-.26-1.89 0-2.97.8-1.08.81-1.08 2.11 0 .86.56 1.44.56.59 1.48 1.03t2.09.79 2.38.77 2.38.95 2.09 1.35q.93.82 1.49 1.96.55 1.15.55 2.76 0 1.92-.68 3.55-.69 1.62-2.05 2.81-1.35 1.18-3.34 1.84-1.99.67-4.59.67-1.37 0-2.69-.25-1.31-.25-2.52-.69t-2.23-1.04q-1.03-.6-1.81-1.3l1.48-2.44q.29-.45.68-.68t.98-.23q.6 0 1.14.33.53.34 1.23.73t1.65.73 2.41.34q1.14 0 1.96-.28.82-.27 1.35-.71t.78-1.03q.25-.58.25-1.21 0-.93-.56-1.53t-1.48-1.04q-.93-.44-2.11-.79t-2.42-.77q-1.23-.42-2.42-.98-1.18-.55-2.1-1.41t-1.48-2.11-.56-3.01q0-1.64.65-3.12.65-1.49 1.91-2.59 1.26-1.11 3.14-1.77 1.89-.66 4.36-.66 2.76 0 5.02.91t3.77 2.39"/></svg>