<svg xmlns="http://www.w3.org/2000/svg" width="400" height="400" viewBox="0 0 400 400"><rect width="100%" height="100%" fill="#FF6347"/><path fill="#FFFFFF" d="M140.12 163.055v5.15q0 2.39-1.35 4.36l-38.59 54.5h39.06v11.18h-57.2v-5.51q0-1.04.36-2 .36-.97.94-1.8l38.68-54.75H84.48v-11.13zm32.76 21.01q5.93 0 10.79 1.92t8.32 5.46 5.33 8.63q1.87 5.1 1.87 11.39 0 6.34-1.87 11.44t-5.33 8.68q-3.46 3.59-8.32 5.52-4.86 1.92-10.79 1.92-5.98 0-10.87-1.92-4.89-1.93-8.34-5.52-3.46-3.58-5.36-8.68t-1.9-11.44q0-6.29 1.9-11.39 1.9-5.09 5.36-8.63 3.45-3.54 8.34-5.46t10.87-1.92m0 45.08q6.66 0 9.85-4.47 3.2-4.47 3.2-13.11 0-8.63-3.2-13.15-3.19-4.53-9.85-4.53-6.76 0-10.01 4.55t-3.25 13.13 3.25 13.08 10.01 4.5m48.98-28.65v23.92q2.19 2.65 4.76 3.74 2.58 1.09 5.44 1.09 2.96 0 5.33-1.06 2.36-1.07 4.03-3.33 1.66-2.26 2.54-5.77.89-3.51.89-8.4 0-8.79-2.91-12.71-2.92-3.93-8.38-3.93-3.69 0-6.44 1.69-2.76 1.69-5.26 4.76m0-39.52v30.47q3.23-3.38 7.15-5.38 3.93-2 8.97-2 4.63 0 8.35 1.82t6.34 5.22q2.63 3.41 4.03 8.24 1.41 4.84 1.41 10.87 0 6.5-1.61 11.81-1.62 5.3-4.61 9.07t-7.2 5.85-9.36 2.08q-2.49 0-4.52-.49-2.03-.5-3.75-1.38-1.71-.89-3.14-2.16t-2.73-2.83l-.57 3.58q-.32 1.36-1.07 1.93t-2.05.57h-8.48v-77.27zm69.79 23.09q5.93 0 10.79 1.92t8.32 5.46 5.33 8.63q1.87 5.1 1.87 11.39 0 6.34-1.87 11.44t-5.33 8.68q-3.46 3.59-8.32 5.52-4.86 1.92-10.79 1.92-5.98 0-10.87-1.92-4.89-1.93-8.35-5.52-3.45-3.58-5.35-8.68t-1.9-11.44q0-6.29 1.9-11.39 1.9-5.09 5.35-8.63 3.46-3.54 8.35-5.46t10.87-1.92m0 45.08q6.65 0 9.85-4.47t3.2-13.11q0-8.63-3.2-13.15-3.2-4.53-9.85-4.53-6.76 0-10.01 4.55t-3.25 13.13 3.25 13.08 10.01 4.5"/></svg>