<svg xmlns="http://www.w3.org/2000/svg" width="300" height="300" viewBox="0 0 300 300"><rect width="100%" height="100%" fill="#25D366"/><path fill="#FFFFFF" d="m73.965 139.55-.97 1.85q-.18.3-.37.44-.2.14-.49.14-.3 0-.66-.23-.35-.22-.85-.5-.49-.27-1.15-.5-.66-.22-1.56-.22-.81 0-1.42.19-.61.2-1.02.55-.41.34-.62.83-.2.49-.2 1.07 0 .73.41 1.23.42.49 1.1.84t1.55.62q.87.28 1.78.59.92.31 1.79.72.87.42 1.55 1.05t1.09 1.54q.42.92.42 2.22 0 1.42-.49 2.66t-1.42 2.16q-.94.92-2.28 1.45-1.35.53-3.09.53-1 0-1.98-.19-.97-.2-1.86-.56t-1.67-.87q-.79-.51-1.4-1.13l1.15-1.87q.15-.21.38-.34.23-.14.49-.14.36 0 .78.3.42.29 1 .65.58.37 1.36.66.78.3 1.86.3 1.67 0 2.58-.79.92-.79.92-2.27 0-.82-.42-1.35-.41-.52-1.09-.87-.68-.36-1.55-.61-.87-.24-1.77-.53t-1.77-.7q-.87-.4-1.55-1.06-.68-.65-1.1-1.63-.41-.98-.41-2.41 0-1.15.46-2.23.45-1.09 1.32-1.93t2.15-1.35 2.93-.51q1.85 0 3.42.58t2.67 1.62m14.8 5.96-.94 1.31q-.16.2-.31.32-.15.11-.44.11-.28 0-.54-.16-.26-.17-.62-.38-.37-.21-.87-.38-.5-.16-1.24-.16-.94 0-1.65.34t-1.18.98q-.47.63-.7 1.54-.24.91-.24 2.05 0 1.19.26 2.12.25.93.73 1.56t1.16.96q.68.32 1.54.32.85 0 1.38-.21t.89-.46q.37-.26.63-.47.27-.21.61-.21.43 0 .65.34l1.03 1.3q-.6.7-1.29 1.17-.7.47-1.45.75-.74.29-1.53.4-.79.12-1.58.12-1.37 0-2.59-.52-1.22-.51-2.13-1.5-.92-.98-1.45-2.41-.52-1.43-.52-3.26 0-1.64.47-3.04.47-1.39 1.38-2.42.92-1.02 2.26-1.6 1.35-.58 3.11-.58 1.66 0 2.92.54 1.25.53 2.25 1.53m10.24 9.2v-2.51q-1.55.07-2.61.27-1.06.19-1.7.5-.63.3-.91.71-.28.4-.28.88 0 .94.56 1.35t1.46.41q1.1 0 1.91-.4.8-.4 1.57-1.21m-7.57-7.82-.64-1.14q2.57-2.35 6.18-2.35 1.31 0 2.33.43 1.03.42 1.74 1.18.72.77 1.08 1.82.37 1.06.37 2.32v9.4h-1.62q-.51 0-.78-.15-.28-.15-.44-.62l-.32-1.07q-.56.51-1.1.89-.53.38-1.11.65-.58.26-1.24.39-.66.14-1.46.14-.94 0-1.74-.25-.8-.26-1.38-.76-.58-.51-.9-1.26-.32-.76-.32-1.76 0-.56.19-1.12t.62-1.07 1.11-.96 1.67-.78 2.31-.54 3.02-.26v-.87q0-1.49-.64-2.21t-1.84-.72q-.87 0-1.44.21-.57.2-1.01.45-.43.26-.79.46t-.79.2q-.38 0-.64-.19-.26-.2-.42-.46m17.53-2.56.25 1.17q.45-.45.95-.83.5-.39 1.06-.66.55-.26 1.19-.42.64-.15 1.39-.15 1.22 0 2.17.41.94.42 1.57 1.16.63.75.96 1.79.32 1.03.32 2.28v9.47h-3.58v-9.47q0-1.36-.62-2.11-.63-.75-1.9-.75-.93 0-1.74.43-.81.42-1.54 1.14v10.76h-3.58v-14.88h2.19q.69 0 .91.66m23.62 3.74q0 1.72.47 3.09.46 1.37 1.32 2.32.87.95 2.09 1.46 1.23.51 2.76.51 1.54 0 2.77-.51 1.22-.51 2.08-1.46.85-.95 1.32-2.32.46-1.37.46-3.09 0-1.73-.46-3.1-.47-1.37-1.32-2.33-.86-.95-2.08-1.46-1.23-.51-2.77-.51-1.53 0-2.76.51-1.22.51-2.09 1.46-.86.96-1.32 2.33-.47 1.37-.47 3.1m13.02 8.78 5.32 5.8h-3.21q-.7 0-1.26-.18-.56-.19-1.02-.7l-3.07-3.39q-.74.2-1.52.3t-1.62.1q-2.37 0-4.33-.8-1.96-.81-3.36-2.24-1.4-1.44-2.17-3.4-.77-1.97-.77-4.27 0-2.31.77-4.27.77-1.97 2.17-3.4 1.4-1.44 3.36-2.24 1.96-.81 4.33-.81 1.6 0 3 .37 1.41.37 2.59 1.04 1.17.68 2.11 1.64.93.97 1.58 2.16.66 1.19 1 2.58t.34 2.93q0 1.4-.29 2.69-.29 1.28-.84 2.4-.54 1.11-1.32 2.05-.79.93-1.79 1.64m11.56-9.29h2.44q1.1 0 1.92-.28.82-.27 1.35-.76.52-.48.79-1.15.26-.67.26-1.47 0-1.59-1.05-2.45-1.06-.85-3.22-.85h-2.49zm7.22 3.25 5.25 7.74h-3.52q-1 0-1.45-.78l-4.41-6.72q-.25-.37-.55-.53-.29-.16-.87-.16h-1.67v8.19h-3.9v-20.97h6.39q2.14 0 3.67.45 1.52.44 2.5 1.23.98.8 1.45 1.91.46 1.11.46 2.44 0 1.06-.31 2.01-.31.94-.9 1.71t-1.45 1.35-1.97.91q.38.22.7.51.32.3.58.71m28.33-13.23h3.92v20.97h-3.92v-9.16h-9.84v9.16h-3.92v-20.97h3.92v9.02h9.84zm10.85 11.82h6.76q0-.7-.2-1.31-.19-.62-.59-1.08-.39-.47-.99-.73-.6-.27-1.4-.27-1.55 0-2.44.88-.89.89-1.14 2.51m9.13 2.16h-9.2q.08 1.15.4 1.98t.84 1.38q.53.54 1.24.81.72.27 1.59.27t1.5-.21q.63-.2 1.1-.44.48-.25.83-.45.36-.21.69-.21.45 0 .67.34l1.03 1.3q-.6.7-1.34 1.17t-1.54.75q-.81.29-1.64.4-.83.12-1.62.12-1.55 0-2.88-.52-1.34-.51-2.32-1.52-.99-1.01-1.55-2.49-.57-1.49-.57-3.45 0-1.52.49-2.86.5-1.34 1.42-2.34.92-.99 2.24-1.57 1.33-.58 3-.58 1.41 0 2.59.45 1.19.45 2.05 1.31.85.87 1.34 2.12t.49 2.86q0 .82-.18 1.1-.17.28-.67.28m6.69-6.99.22 1.68q.69-1.33 1.65-2.09t2.26-.76q1.03 0 1.65.45l-.23 2.68q-.07.26-.21.37t-.37.11q-.21 0-.64-.07-.43-.08-.84-.08-.59 0-1.05.18-.47.17-.84.5-.37.32-.65.79-.28.46-.53 1.06v9.16h-3.58v-14.88h2.1q.55 0 .77.2.22.19.29.7m10.48 4.83h6.76q0-.7-.2-1.31-.19-.62-.58-1.08-.39-.47-1-.73-.6-.27-1.4-.27-1.55 0-2.44.88-.89.89-1.14 2.51m9.14 2.16h-9.21q.09 1.15.41 1.98t.84 1.38q.52.54 1.24.81.71.27 1.58.27t1.51-.21q.63-.2 1.1-.44.47-.25.82-.45.36-.21.69-.21.45 0 .67.34l1.03 1.3q-.6.7-1.33 1.17-.74.47-1.55.75-.8.29-1.64.4-.83.12-1.61.12-1.56 0-2.89-.52-1.33-.51-2.32-1.52t-1.55-2.49q-.57-1.49-.57-3.45 0-1.52.5-2.86.49-1.34 1.41-2.34.92-.99 2.25-1.57 1.32-.58 2.99-.58 1.41 0 2.6.45t2.04 1.31q.86.87 1.34 2.12.49 1.25.49 2.86 0 .82-.18 1.1-.17.28-.66.28"/></svg>